<svg width="33" height="33" viewBox="0 0 33 33" fill="none" xmlns="http://www.w3.org/2000/svg">
<path d="M16.5 0C13.2366 0 10.0465 0.967708 7.3331 2.78075C4.61969 4.59379 2.50484 7.17074 1.25599 10.1857C0.00714917 13.2007 -0.319606 16.5183 0.31705 19.719C0.953706 22.9197 2.52518 25.8597 4.83274 28.1673C7.14031 30.4748 10.0803 32.0463 13.281 32.6829C16.4817 33.3196 19.7993 32.9929 22.8143 31.744C25.8293 30.4952 28.4062 28.3803 30.2193 25.6669C32.0323 22.9535 33 19.7634 33 16.5C32.995 12.1255 31.255 7.93152 28.1618 4.83825C25.0685 1.74498 20.8745 0.00499092 16.5 0ZM25.9191 27.0199C25.8957 25.474 25.2658 23.9992 24.1653 22.9133C23.0648 21.8274 21.5818 21.2172 20.0357 21.2143H12.9643C11.4182 21.2172 9.93517 21.8274 8.83468 22.9133C7.73419 23.9992 7.10435 25.474 7.08086 27.0199C4.9436 25.1115 3.4364 22.599 2.75885 19.8149C2.08129 17.0309 2.26534 14.1067 3.28662 11.4296C4.30789 8.75251 6.11823 6.44875 8.47791 4.82338C10.8376 3.19801 13.6353 2.32771 16.5006 2.32771C19.3659 2.32771 22.1636 3.19801 24.5233 4.82338C26.883 6.44875 28.6933 8.75251 29.7146 11.4296C30.7358 14.1067 30.9199 17.0309 30.2423 19.8149C29.5648 22.599 28.0576 25.1115 25.9203 27.0199H25.9191Z" fill="#615651"/>
</svg>
