<svg width="34" height="34" viewBox="0 0 34 34" fill="none" xmlns="http://www.w3.org/2000/svg">
<path opacity="0.43" d="M29.2563 2.04594C30.0692 2.09267 30.8584 2.33723 31.5553 2.75839C32.2523 3.17954 32.8358 3.76453 33.2552 4.46251C33.6746 5.16049 33.9171 5.95034 33.9618 6.7634C34.0065 7.57646 33.8519 8.38813 33.5115 9.12786L23.8346 30.154C23.4545 30.9802 22.8562 31.6871 22.1041 32.1985C21.3521 32.71 20.4748 33.0066 19.5667 33.0565C18.6586 33.1064 17.7541 32.9077 16.9506 32.4817C16.1471 32.0558 15.4749 31.4187 15.0065 30.6391L1.57535 8.28593C1.10693 7.50638 0.860004 6.61384 0.861149 5.70438C0.862295 4.79492 1.11147 3.903 1.58185 3.12463C2.05223 2.34627 2.72599 1.71093 3.53062 1.28703C4.33524 0.863126 5.24025 0.666709 6.1482 0.718923L29.2563 2.04594Z" fill="#B79E8A"/>
</svg>
