<svg width="34" height="34" viewBox="0 0 34 34" fill="none" xmlns="http://www.w3.org/2000/svg">
<path opacity="0.43" d="M29.2563 2.05326C30.0692 2.09999 30.8584 2.34456 31.5553 2.76571C32.2523 3.18686 32.8358 3.77185 33.2552 4.46983C33.6746 5.16781 33.9171 5.95766 33.9618 6.77072C34.0065 7.58378 33.8519 8.39545 33.5115 9.13518L23.8346 30.1614C23.4545 30.9876 22.8562 31.6944 22.1041 32.2059C21.3521 32.7173 20.4748 33.0139 19.5667 33.0638C18.6586 33.1137 17.7541 32.915 16.9506 32.489C16.1471 32.0631 15.4749 31.426 15.0065 30.6465L1.57535 8.29326C1.10693 7.51371 0.860004 6.62116 0.861149 5.7117C0.862295 4.80225 1.11147 3.91033 1.58185 3.13196C2.05223 2.35359 2.72599 1.71826 3.53062 1.29435C4.33524 0.87045 5.24025 0.674033 6.1482 0.726247L29.2563 2.05326Z" fill="#DFDFDF"/>
</svg>
